# xmcd
#
# Track frame offsets:
#	150
#	17092
#	34173
#	51368
#	66887
#	81362
#	96344
#	110816
#	125220
#	142168
#	160499
#	176269
#
# Disc length: 2629 seconds
# Revision: 0
# Processed by: cddbd v1.5.2PL0 Copyright (c) Steve Scherf et al.
# Submitted via: dBpowerAMP V12.0
#
DISCID=b40a430c
DTITLE=Michelle Russell  -  Restless Heart
DYEAR=2018
DGENRE=Country
TTITLE0=Your Restless Heart
TTITLE1=If We Could Return
TTITLE2=King Billy
TTITLE3=Storms Never Last
TTITLE4=I'll Give To You My Heart
TTITLE5=A Cotton Field Away
TTITLE6=Mr Man In The Moon
TTITLE7=It's More Than Just A House
TTITLE8=Don't Blame Her
TTITLE9=Smell The Roses
TTITLE10=I Saw A Man
TTITLE11=Mississippi
EXTD=
EXTT0=
EXTT1=
EXTT2=
EXTT3=
EXTT4=
EXTT5=
EXTT6=
EXTT7=
EXTT8=
EXTT9=
EXTT10=
EXTT11=
PLAYORDER=
